<svg width="14" height="14" viewBox="0 0 14 14" fill="none" xmlns="http://www.w3.org/2000/svg">
<path d="M11.2037 2.2H2.24073C1.62285 2.2 1.12036 2.69335 1.12036 3.3V9.9C1.12036 10.5066 1.62285 11 2.24073 11H11.2037C11.8216 11 12.3241 10.5066 12.3241 9.9V3.3C12.3241 2.69335 11.8216 2.2 11.2037 2.2ZM11.2037 3.3V3.58105L6.72221 7.0037L2.24073 3.5816V3.3H11.2037ZM2.24073 9.9V4.9742L6.37826 8.13395C6.47909 8.2115 6.60065 8.25 6.72221 8.25C6.84377 8.25 6.96533 8.2115 7.06617 8.13395L11.2037 4.9742L11.2048 9.9H2.24073Z" fill="#1C1E1D"/>
</svg>
