<svg width="10" height="10" viewBox="0 0 10 10" fill="none" xmlns="http://www.w3.org/2000/svg">
<path d="M2.23839 10H0.165179V3.32351H2.23839V10ZM1.20067 2.41278C0.537723 2.41278 0 1.86366 0 1.2007C4.74509e-09 0.882252 0.126499 0.57685 0.351668 0.351676C0.576837 0.126502 0.882232 0 1.20067 0C1.51911 0 1.8245 0.126502 2.04967 0.351676C2.27484 0.57685 2.40134 0.882252 2.40134 1.2007C2.40134 1.86366 1.86339 2.41278 1.20067 2.41278ZM9.99777 10H7.92902V6.74993C7.92902 5.97536 7.91339 4.98203 6.85112 4.98203C5.77321 4.98203 5.60804 5.82357 5.60804 6.69412V10H3.53705V3.32351H5.52545V4.23425H5.55446C5.83125 3.70968 6.50737 3.1561 7.51607 3.1561C9.61429 3.1561 10 4.53782 10 6.33251V10H9.99777Z" fill="#1C1E1D"/>
</svg>
