<svg width="50" height="50" viewBox="0 0 50 50" fill="none" xmlns="http://www.w3.org/2000/svg">
<path d="M47.915 0H2.085C0.933487 0 0 0.933487 0 2.085V47.915C0 49.0665 0.933487 50 2.085 50H47.915C49.0665 50 50 49.0665 50 47.915V2.085C50 0.933487 49.0665 0 47.915 0Z" fill="white"/>
<path d="M40.335 13.7541L31.875 18.6375C30.1633 16.7925 27.7167 15.6375 25 15.6375C22.2833 15.6375 19.8367 16.7925 18.1267 18.6391L9.66665 13.7541C9.38832 13.5941 9.38832 13.1925 9.66665 13.0325L22.9167 5.38248C24.2067 4.63748 25.795 4.63748 27.0833 5.38248L40.335 13.0325C40.6117 13.1925 40.6117 13.5941 40.335 13.7541Z" fill="#204496"/>
<path d="M43.0434 17.7217V33.0234C43.0434 34.5117 42.2484 35.8867 40.96 36.6317L27.7084 44.2817C27.4317 44.4417 27.0834 44.2417 27.0834 43.9201V34.1534C31.2584 33.2067 34.375 29.4734 34.375 25.0117C34.375 24.0484 34.23 23.1184 33.96 22.2451L42.4184 17.3617C42.695 17.2017 43.0434 17.4017 43.0434 17.7217Z" fill="#204496"/>
<path d="M22.9167 34.1534V43.9201C22.9167 44.2417 22.57 44.4417 22.2917 44.2817L9.04171 36.6317C7.75337 35.8867 6.95837 34.5117 6.95837 33.0234V17.7217C6.95837 17.4017 7.30504 17.2017 7.58337 17.3617L16.04 22.2451C15.77 23.1184 15.625 24.0484 15.625 25.0117C15.625 29.4734 18.7417 33.2067 22.9167 34.1534Z" fill="#204496"/>
<path d="M25 30.2209C27.8765 30.2209 30.2084 27.889 30.2084 25.0125C30.2084 22.136 27.8765 19.8042 25 19.8042C22.1236 19.8042 19.7917 22.136 19.7917 25.0125C19.7917 27.889 22.1236 30.2209 25 30.2209Z" fill="#204496"/>
</svg>
