<svg width="41" height="41" viewBox="0 0 41 41" fill="none" xmlns="http://www.w3.org/2000/svg">
<path d="M38.5447 0H1.67726C0.750933 0 0 0.750933 0 1.67726V38.5447C0 39.471 0.750933 40.222 1.67726 40.222H38.5447C39.471 40.222 40.222 39.471 40.222 38.5447V1.67726C40.222 0.750933 39.471 0 38.5447 0Z" fill="#0084F8"/>
<path d="M32.4468 11.0632L25.6412 14.9915C24.2643 13.5073 22.2961 12.5782 20.1107 12.5782C17.9253 12.5782 15.9571 13.5073 14.5815 14.9929L7.77589 11.0632C7.55199 10.9345 7.55199 10.6114 7.77589 10.4826L18.4347 4.32868C19.4725 3.72938 20.7502 3.72938 21.7866 4.32868L32.4468 10.4826C32.6693 10.6114 32.6693 10.9345 32.4468 11.0632Z" fill="white"/>
<path d="M34.6261 14.2558V26.565C34.6261 27.7623 33.9866 28.8684 32.9502 29.4677L22.29 35.6217C22.0674 35.7504 21.7872 35.5895 21.7872 35.3307V27.474C25.1458 26.7125 27.6529 23.7093 27.6529 20.1201C27.6529 19.3452 27.5363 18.597 27.3191 17.8945L34.1233 13.9662C34.3459 13.8374 34.6261 13.9983 34.6261 14.2558Z" fill="white"/>
<path d="M18.4351 27.474V35.3307C18.4351 35.5895 18.1562 35.7504 17.9323 35.6217L7.27349 29.4677C6.23711 28.8684 5.59758 27.7623 5.59758 26.565V14.2558C5.59758 13.9983 5.87645 13.8374 6.10035 13.9662L12.9032 17.8945C12.686 18.597 12.5694 19.3452 12.5694 20.1201C12.5694 23.7093 15.0766 26.7125 18.4351 27.474Z" fill="white"/>
<path d="M20.1108 24.31C22.4248 24.31 24.3006 22.4341 24.3006 20.1202C24.3006 17.8062 22.4248 15.9304 20.1108 15.9304C17.7968 15.9304 15.921 17.8062 15.921 20.1202C15.921 22.4341 17.7968 24.31 20.1108 24.31Z" fill="white"/>
</svg>
