<svg width="20" height="20" viewBox="0 0 20 20" fill="none" xmlns="http://www.w3.org/2000/svg">
<path d="M11.0822 8.81465L10.592 8.07753L7.23356 3.02893H3.42252L8.47577 10.6262L8.96594 11.3626L12.5364 16.7299H16.3474L11.0822 8.81465ZM12.9893 15.8378L9.54696 10.6628L9.05679 9.92608L5.06231 3.92091H6.78053L10.0109 8.77734L10.5011 9.51401L14.7075 15.8377L12.9893 15.8378Z" fill="#1C1E1D"/>
<path d="M9.05679 9.92608L9.54696 10.6628L8.96594 11.3626L4.50711 16.7298H3.40759L8.47577 10.6262L9.05679 9.92608Z" fill="#1C1E1D"/>
<path d="M15.8885 3.02893L11.0822 8.81465L10.5011 9.51401L10.0109 8.77734L10.592 8.07753L13.8477 4.15648L14.789 3.02893H15.8885Z" fill="#1C1E1D"/>
</svg>
